<svg xmlns="http://www.w3.org/2000/svg" width="971.052" height="628.381" xmlns:v="https://vecta.io/nano"><path d="M733.457 500.406h0a249.65 249.65 0 0 1-2.095-54.111l2.095-29.889h0c-11.542 22.966-8.933 53.192 0 84zm9 5h0a183.51 183.51 0 0 1-1.008-32.209l1.008-17.791h0c-5.553 13.67-4.298 31.662 0 50z" fill="#cacaca"/><path d="M782.462 527.408v10c-.009 1.653-1.347 2.991-3 3h-5c-.266-.001-.52.104-.708.292s-.293.443-.292.708v82c-.009 1.653-1.347 2.991-3 3h-61c-1.656-.001-2.999-1.344-3-3v-82c-.002-.552-.448-.998-1-1h-6c-1.656-.001-2.999-1.344-3-3v-10c-.001-.796.315-1.56.877-2.123s1.327-.879 2.123-.877h80a3.01 3.01 0 0 1 3 3z" fill="#f2f2f2"/><path d="M706.552 542.508h67v3h-67zm66.91 44.145c-22.42 9.278-45.084 9.38-68 0v-21.135a106.79 106.79 0 0 1 68 0z" fill="#e6e6e6"/><g fill="#2f2e41"><circle cx="451.481" cy="213.985" r="36.396"/><path d="M461.621 178.591a36.4 36.4 0 0 1 32.039 53.669 36.39 36.39 0 0 0-27.306-59.088 36.39 36.39 0 0 0-33.149 19.105c6.892-8.653 17.353-13.691 28.415-13.686z"/><circle cx="383.471" cy="106.996" r="106.912"/><path d="M299.562 40.662c38.293-43.065 103.831-48.024 148.167-11.21l-2.648-2.476c-44.133-39.2-111.684-35.215-150.902 8.901s-35.263 111.669 8.836 150.906c.908.808 1.842 1.568 2.77 2.339-41.754-39.719-44.506-105.387-6.223-148.46z"/></g><circle cx="382.565" cy="144.143" r="68.859" fill="#ffb8b8"/><path d="M417.74 231.695l-73.688 3.313s6.15 38.108-33.715 41.732-76.107-7.248-90.604 19.933-8.248 123.966-8.248 123.966 27.181 97.852 48.926 112.349 212.013-5.436 212.013-5.436l79.628-100.544-2.697-77.54c-1.408-40.491-38.377-70.892-78.193-63.398q-1.173.221-2.362.475s-8.747-6.538-32.747-18.538c-14.677-7.338-18.312-36.313-18.312-36.313z" fill="#cacaca"/><path d="M257.786 274.928s17.514 31.778 10.266 77.08 23.164 141.114 23.164 141.114l21.745-5.436s-14.497-94.228-10.872-115.973 4.624-85.913-13.497-96.785-30.805 0-30.805 0zm209.739 16.662l7.617 200.626 14.497 9.06s20.839-220.167 9.966-220.167h-22.122a9.97 9.97 0 0 0-9.97 9.97q0 .255.013.511z" fill="#2f2e41"/><g fill="#2ff1e7"><circle cx="301.182" cy="479.532" r="9.06"/><circle cx="482.39" cy="488.592" r="9.06"/></g><path fill="#2f2e41" d="M323.672 58.069v68.859h15.947l20.295-21.745-2.718 21.745h70.489l-4.349-21.745 8.698 21.745h11.235V58.069H323.672z"/><g fill="#ffb8b8"><ellipse cx="312.8" cy="129.647" rx="5.436" ry="9.966"/><ellipse cx="452.329" cy="129.647" rx="5.436" ry="9.966"/></g><g fill="#3f3d56"><path d="M603.152 608.446v6.07a13.34 13.34 0 0 1-.91 4.87c-.269.692-.593 1.361-.97 2-2.425 4.07-6.813 6.562-11.55 6.56h-446.55a13.44 13.44 0 0 1-11.55-6.56 13.69 13.69 0 0 1-.97-2 13.34 13.34 0 0 1-.91-4.87v-6.07c-.001-3.561 1.413-6.976 3.93-9.495s5.932-3.934 9.493-3.935h25.747v-2.83a.56.56 0 0 1 .558-.56h13.432a.56.56 0 0 1 .56.558v2.832h8.39v-2.83a.56.56 0 0 1 .558-.56h13.432a.56.56 0 0 1 .56.558v2.832h8.4v-2.83a.56.56 0 0 1 .558-.56h13.432a.56.56 0 0 1 .56.558v2.832h8.39v-2.83a.56.56 0 0 1 .558-.56h13.432a.56.56 0 0 1 .56.558v2.832h8.39v-2.83a.56.56 0 0 1 .558-.56h13.432a.56.56 0 0 1 .56.558v2.832h8.4v-2.83a.56.56 0 0 1 .558-.56h13.432a.56.56 0 0 1 .56.558v2.832h8.39v-2.83a.56.56 0 0 1 .558-.56h105.202a.56.56 0 0 1 .56.558v2.832h8.4v-2.83a.56.56 0 0 1 .558-.56h13.432c.308.003.557.252.56.56v2.83h8.39v-2.83a.56.56 0 0 1 .558-.56h13.432a.56.56 0 0 1 .56.558v2.832h8.39v-2.83a.56.56 0 0 1 .558-.56h13.432a.56.56 0 0 1 .56.558v2.832h8.4v-2.83a.56.56 0 0 1 .558-.56h13.432c.306.004.552.254.55.56v2.83h8.4v-2.83a.56.56 0 0 1 .558-.56h13.432a.56.56 0 0 1 .56.558v2.832h8.39v-2.83a.56.56 0 0 1 .558-.56h13.432a.56.56 0 0 1 .56.558v2.832h39.17a13.43 13.43 0 0 1 13.43 13.423z"/><path d="M0 626.381h971.052v2H0zm567.194-273.569H158.151a11.26 11.26 0 0 0-11.259 11.259v227.911a11.26 11.26 0 0 0 11.259 11.259h409.044a11.26 11.26 0 0 0 11.259-11.259V364.071a11.26 11.26 0 0 0-11.259-11.259z"/></g><circle cx="363" cy="432.381" r="25" fill="#2ff1e7"/><path fill="#3f3d56" d="M517.763 267.219l126.206-127.203h59.583v-2h-60.418l-.293.297-126.5 127.5 1.422 1.406z"/><path fill="#2ff1e7" d="M776.328 87.792h146.224v13.03H776.328z"/><path d="M758.507 109.061h-30.955V78.106h30.955zm-28.955-2h26.955V80.106h-26.955z" fill="#3f3d56"/><path fill="#2ff1e7" d="M776.328 131.225h146.224v13.03H776.328z"/><path d="M758.507 152.494h-30.955v-30.955h30.955zm-28.955-2h26.955v-26.955h-26.955z" fill="#3f3d56"/><path fill="#2ff1e7" d="M776.328 174.658h146.224v13.03H776.328z"/><path d="M758.507 195.926h-30.955v-30.955h30.955zm-28.955-2h26.955v-26.955h-26.955z" fill="#3f3d56"/></svg>